HIERARCHY
ROOT pelvis
{
  OFFSET 0 100 0
  CHANNELS 6 Xposition Yposition Zposition Zrotation Xrotation Yrotation
  JOINT pelvis_right_femur
  {
    OFFSET -10.78128 -3.44521 -0.5502486
    CHANNELS 3 Zrotation Xrotation Yrotation
    JOINT right_femur_tibia
    {
      OFFSET -0.8047443 -44.0398 -0.1307829
      CHANNELS 3 Zrotation Xrotation Yrotation
      JOINT right_tibia_foot
      {
        OFFSET 3.006224 -47.83518 -5
        CHANNELS 3 Zrotation Xrotation Yrotation
        End Site
        {
          OFFSET 0 -5 15
        }
      }
    }
  }
  JOINT pelvis_left_femur
  {
    OFFSET 10.78128 -3.44521 -0.5502486
    CHANNELS 3 Zrotation Xrotation Yrotation
    JOINT left_femur_tibia
    {
      OFFSET 0.8047443 -44.0398 -0.1307829
      CHANNELS 3 Zrotation Xrotation Yrotation
      JOINT left_tibia_foot
      {
        OFFSET -4.370144 -48.10324 -4.275266
        CHANNELS 3 Zrotation Xrotation Yrotation
        End Site
        {
          OFFSET 0 -5 15
        }
      }
    }
  }
  JOINT pelvis_spine1
  {
    OFFSET 0 6.468898 -3.129235
    CHANNELS 3 Zrotation Xrotation Yrotation
    JOINT spine1
    {
      OFFSET 0 23.15396 4.99043
      CHANNELS 3 Zrotation Xrotation Yrotation
      JOINT spine2
      {
        OFFSET 0 20.79997 -5.064912
        CHANNELS 3 Zrotation Xrotation Yrotation
        JOINT neck
        {
          OFFSET 0 14.38658 9.616178
          CHANNELS 3 Zrotation Xrotation Yrotation
          End Site
          {
            OFFSET 0 20 0
          }
        }
      }
      JOINT right_manubrium
      {
        OFFSET -5.722621 16.35077 3.967754
        CHANNELS 3 Zrotation Xrotation Yrotation
        JOINT right_clavicle
        {
          OFFSET -13.16364 1.694482 -4.693211
          CHANNELS 3 Zrotation Xrotation Yrotation
          JOINT right_humerus
          {
            OFFSET -28.5034 -0.3100689 -2.792744
            CHANNELS 3 Zrotation Xrotation Yrotation
            JOINT right_radius
            {
              OFFSET -25.15693 0.02248979 -1.271978
              CHANNELS 3 Zrotation Xrotation Yrotation
              End Site
              {
                OFFSET -15 0 0
              }
            }
          }
        }
      }
      JOINT left_manubrium
      {
        OFFSET 5.722621 16.35077 3.967754
        CHANNELS 3 Zrotation Xrotation Yrotation
        JOINT left_clavicle
        {
          OFFSET 13.16364 1.694482 -4.693211
          CHANNELS 3 Zrotation Xrotation Yrotation
          JOINT left_humerus
          {
            OFFSET 29.39168 -1.063119 -2.237045
            CHANNELS 3 Zrotation Xrotation Yrotation
            JOINT left_radius
            {
              OFFSET 24.59957 -0.9528479 0.9047498
              CHANNELS 3 Zrotation Xrotation Yrotation
              End Site
              {
                OFFSET 15 -0 -0
              }
            }
          }
        }
      }
    }
  }
}
MOTION
Frames: 21
Frame Time: 0.0416666666667
-1131.087 101.8975 2479.112 -9.775698 -5.789131 -61.68187 -0.3462311 -7.68989 -4.503873 -0 46.61687 -0 -15.49978 9.444361 2.828138 -4.621838 7.652842 -13.84046 -0 12.55038 -0 -0.2867587 -13.82748 18.21476 0.6221648 -3.333618 8.459578 0.5965596 16.2459 -5.406404 -0.0007406603 19.01202 3.778072 2.510299 -17.76488 3.14338 0.02273612 -32.20127 13.85389 85.29994 15.60614 -6.616762 -0 0 31.9584 -24.80054 16.77004 15.437 2.286368 -23.73237 -8.673406 -98.8141 8.690802 40.94301 0 0 -0.4627292 4.924444 12.99338 5.664422
-1134.805 101.6624 2481.591 -8.857763 -5.520481 -61.28442 -0.2884791 -12.15898 -6.14329 -0 36.681 -0 -14.36532 5.864798 2.124228 -4.762114 10.43001 -13.56405 -0 10.7542 -0 -0.6345087 -16.48001 17.18125 0.5604386 -3.298794 8.514017 0.6120089 16.12667 -5.393688 -0.122781 18.99991 3.912871 2.680216 -17.58648 3.020319 0.162806 -32.12477 13.86851 85.08869 15.79857 -6.599415 -0 0 31.98584 -24.66651 16.53646 15.2999 2.340207 -23.82453 -8.711533 -98.83026 8.461231 41.06164 0 0 -0.3523911 5.008196 12.84659 5.62198
-1138.654 100.9092 2484.021 -7.563818 -5.195507 -60.94865 -0.318865 -15.72965 -7.663669 -0 26.86413 -0 -13.18394 3.382618 1.843055 -5.149864 12.54243 -13.25692 -0 9.750141 -0 -0.5652523 -18.78193 16.4948 0.5024612 -3.258326 8.560896 0.6273671 16.00971 -5.390657 -0.2361112 19.00434 4.033722 2.841293 -17.41614 2.899755 0.2825088 -32.02154 13.87561 84.91951 16.01357 -6.632941 -0 0 31.9486 -24.51292 16.27282 15.12339 2.392106 -23.91668 -8.753096 -98.80644 8.249021 41.11693 0 0 -0.2850014 5.128996 12.71694 5.528595
-1142.719 99.81267 2486.47 -6.20831 -4.782312 -60.6645 -0.2024088 -18.65873 -8.779906 -0 18.71613 -0 -12.19543 2.170903 1.86043 -5.605123 14.08682 -12.77996 -0 9.875122 -0 0.1753608 -20.36179 16.21569 0.4467239 -3.213989 8.603628 0.6430971 15.89371 -5.394025 -0.343106 19.02058 4.143768 2.993888 -17.25329 2.782138 0.3862388 -31.90265 13.87679 84.7808 16.24447 -6.699481 -0 0 31.86834 -24.34324 15.98661 14.92031 2.440436 -24.00651 -8.796391 -98.75759 8.051327 41.13382 0 0 -0.2455046 5.273273 12.59841 5.403831
-1147.05 98.56714 2488.985 -5.04818 -4.303719 -60.43131 0.197917 -21.0117 -9.382413 -0 12.80419 -0 -11.5409 2.01766 2.031841 -5.986446 15.14597 -12.0892 -0 11.31701 -0 1.489417 -21.03785 16.23216 0.3921419 -3.167323 8.644486 0.6594308 15.77768 -5.40148 -0.4456234 19.04528 4.245786 3.139046 -17.09674 2.667524 0.478024 -31.77469 13.8732 84.66362 16.48677 -6.787532 -0 0 31.75913 -24.16012 15.68332 14.69959 2.48495 -24.09334 -8.840324 -98.69382 7.865951 41.12829 0 0 -0.2246905 5.432339 12.48685 5.261049
-1151.676 97.36233 2491.599 -4.248314 -3.804663 -60.25989 0.9362784 -22.7256 -9.468564 -0 9.119072 -0 -11.27021 2.576756 2.247494 -6.20092 15.755 -11.20488 -0 14.18285 -0 3.09727 -20.75469 16.34221 0.3379787 -3.119613 8.684908 0.6764096 15.66091 -5.411441 -0.5450337 19.07614 4.342068 3.278127 -16.94504 2.555731 0.5614028 -31.6411 13.86563 84.56131 16.73768 -6.890167 -0 0 31.62958 -23.96561 15.36693 14.46716 2.526231 -24.17746 -8.884259 -98.62163 7.691266 41.1098 0 0 -0.2174015 5.601087 12.37958 5.108864
-1156.604 96.37187 2494.326 -3.901523 -3.332175 -60.17814 2.007374 -23.67676 -9.078297 -0 7.414103 -0 -11.3736 3.495623 2.432291 -6.187046 15.88202 -10.18428 -0 18.53233 -0 4.690156 -19.52526 16.34544 0.2837608 -3.071908 8.725748 0.6939406 15.54302 -5.42285 -0.6423018 19.11162 4.434434 3.412565 -16.79667 2.446463 0.6393977 -31.50331 13.85458 84.46898 16.99571 -7.003574 -0 0 31.48458 -23.7612 15.04031 14.22676 2.565312 -24.25971 -8.927854 -98.54499 7.526126 41.08341 0 0 -0.2211776 5.776865 12.27497 4.952502
-1161.808 95.74242 2497.163 -4.047928 -2.931075 -60.23311 3.345404 -23.72363 -8.280767 -0 7.339826 -0 -11.80757 4.451855 2.532498 -5.903478 15.42573 -9.110619 -0 24.34763 -0 6.010482 -17.41809 16.10405 0.2292056 -3.025051 8.767472 0.7118454 15.4238 -5.435004 -0.7380753 19.15072 4.524298 3.543736 -16.65027 2.3394 0.7145424 -31.36151 13.84037 84.3831 17.26027 -7.125959 -0 0 31.32661 -23.548 14.7056 13.98067 2.603427 -24.34116 -8.970949 -98.46619 7.369776 41.05129 0 0 -0.2352948 5.958614 12.17206 4.794895
-1167.219 95.57668 2500.082 -4.674098 -2.645555 -60.48484 4.809279 -22.74245 -7.193247 -0 8.444599 -0 -12.50769 5.162325 2.508798 -5.335264 14.2346 -8.083951 -0 31.44697 -0 6.887946 -14.58451 15.57756 0.1741684 -2.979719 8.810307 0.7298965 15.3032 -5.447442 -0.8327598 19.19279 4.612746 3.672878 -16.50462 2.234255 0.7889334 -31.21518 13.82311 84.30114 17.53135 -7.256789 -0 0 31.15663 -23.32677 14.36442 13.73016 2.641857 -24.42293 -9.013472 -98.38645 7.221783 41.01383 0 0 -0.2601122 6.146253 12.07036 4.637484
-1172.724 95.91124 2503.028 -5.696708 -2.518917 -60.98858 6.184851 -20.67194 -5.994468 -0 10.14849 -0 -13.39229 5.405027 2.338323 -4.514568 12.15717 -7.198656 -0 39.37055 -0 7.259084 -11.30132 14.83656 0.1186045 -2.936452 8.854329 0.7478418 15.18128 -5.459856 -0.9265783 19.23739 4.700596 3.801061 -16.35876 2.130804 0.8642874 -31.0634 13.80283 84.22136 17.80931 -7.396281 -0 0 30.97466 -23.09807 14.01803 13.47585 2.681846 -24.50609 -9.055387 -98.30631 7.081983 40.97036 0 0 -0.2966413 6.340272 11.96964 4.480781
-1178.185 96.69878 2505.925 -6.950507 -2.586754 -61.766 7.235302 -17.56303 -4.896408 -0 11.78782 -0 -14.36059 5.062906 2.020436 -3.536208 9.124608 -6.505541 -0 47.30018 -0 7.176411 -7.984943 14.04803 0.0625439 -2.89568 8.899531 0.76542 15.05815 -5.472042 -1.019613 19.28428 4.788454 3.92918 -16.21194 2.028906 0.9419962 -30.90516 13.77945 84.14256 18.09474 -7.545071 -0 0 30.78023 -22.86222 13.66747 13.21796 2.724553 -24.59164 -9.096648 -98.22591 6.950438 40.91959 0 0 -0.3462697 6.541461 11.86983 4.324746
-1183.475 97.80866 2508.694 -8.208565 -2.860815 -62.77723 7.798228 -13.60781 -4.06715 -0 12.77956 -0 -15.28718 4.163448 1.578598 -2.534342 5.235133 -5.980158 -0 54.09898 -0 6.795618 -5.120615 13.424 0.00607536 -2.857743 8.945861 0.7823679 14.93395 -5.483854 -1.111837 19.33328 4.876761 4.05795 -16.06364 1.92851 1.023179 -30.73937 13.75282 84.06398 18.38839 -7.704014 -0 0 30.57257 -22.61942 13.31363 12.95645 2.771038 -24.68041 -9.137184 -98.14517 6.82741 40.85998 0 0 -0.4105882 6.750747 11.77099 4.169035
-1188.521 99.05081 2511.278 -9.248966 -3.304995 -63.91696 7.874079 -9.119245 -3.547881 -0 12.84153 -0 -16.02047 2.861589 1.053625 -1.606706 0.7780618 -5.529476 -0 58.52188 -0 6.323131 -3.090944 13.14397 -0.05066413 -2.822913 8.993252 0.7984236 14.80889 -5.495183 -1.203135 19.38428 4.965821 4.187934 -15.91351 1.829654 1.108735 -30.56504 13.72275 83.98517 18.69108 -7.874047 -0 0 30.3508 -22.36974 12.95733 12.69114 2.822257 -24.77312 -9.176876 -98.06391 6.713334 40.78984 0 0 -0.491287 6.969085 11.67318 4.013166
-1193.319 100.211 2513.668 -9.939894 -3.816076 -65.04808 7.63363 -4.463578 -3.231282 -0 12.10054 -0 -16.39963 1.339134 0.4886488 -0.7357458 -3.837626 -5.043503 -0 59.54049 -0 5.927494 -1.991517 13.28465 -0.1074939 -2.791408 9.041632 0.8133246 14.68316 -5.505933 -1.293327 19.43721 5.055848 4.319557 -15.76143 1.732462 1.1994 -30.3812 13.68899 83.90593 19.00363 -8.056109 -0 0 30.11401 -22.11318 12.59936 12.42179 2.879088 -24.87037 -9.215551 -97.98191 6.608793 40.70748 0 0 -0.5900987 7.197394 11.57655 3.856636
-1197.916 101.0833 2515.905 -10.28115 -4.233788 -66.05523 7.327732 0.01838194 -2.925771 -0 10.98313 -0 -16.29615 -0.3223613 -0.09038327 0.206842 -8.194788 -4.458623 -0 56.64975 -0 5.666039 -1.58489 13.78916 -0.1641902 -2.763408 9.090934 0.8268046 14.55699 -5.516006 -1.382176 19.49199 5.146991 4.453145 -15.60739 1.637139 1.295796 -30.18703 13.6513 83.82617 19.32688 -8.251096 -0 0 29.86136 -21.84969 12.24058 12.14817 2.942352 -24.97266 -9.252975 -97.89898 6.514502 40.61128 0 0 -0.7087722 7.436522 11.4812 3.698992
-1202.381 101.5035 2518.08 -10.36494 -4.393525 -66.8819 7.157051 4.058512 -2.45827 -0 9.986517 -0 -15.66314 -2.182543 -0.6832419 1.34706 -11.9339 -3.789966 -0 50.06667 -0 5.49123 -1.447877 14.48217 -0.2204831 -2.739059 9.141097 0.8385889 14.43059 -5.525295 -1.4694 19.54851 5.239356 4.588941 -15.45152 1.54396 1.398463 -29.98174 13.60938 83.74593 19.66164 -8.459838 -0 0 29.59204 -21.57922 11.88193 11.87007 3.012834 -25.0804 -9.288845 -97.81496 6.431294 40.49965 0 0 -0.8490675 7.687225 11.38726 3.539865
-1206.782 101.3937 2520.312 -10.28848 -4.197124 -67.53351 7.180355 7.460434 -1.749728 -0 9.513254 -0 -14.56653 -4.341597 -1.289228 2.671719 -14.77393 -3.116701 -0 40.79001 -0 5.329199 -1.197469 15.12198 -0.2760525 -2.718477 9.192067 0.8483907 14.30423 -5.533676 -1.554672 19.60667 5.33302 4.72712 -15.29408 1.453273 1.507879 -29.76463 13.56293 83.66533 20.00868 -8.683093 -0 0 29.30537 -21.30173 11.52444 11.58734 3.091298 -25.19395 -9.322787 -97.72974 6.360112 40.37107 0 0 -1.012759 7.950166 11.29484 3.378981
-1211.192 100.8015 2522.716 -10.09619 -3.658379 -68.05919 7.306201 10.08865 -0.8472313 -0 9.822627 -0 -13.18848 -6.777652 -1.857541 3.982614 -16.54868 -2.543351 -0 30.458 -0 5.144356 -0.649149 15.48899 -0.3305225 -2.701738 9.24379 0.8559074 14.17815 -5.541011 -1.637623 19.6663 5.428037 4.867801 -15.13546 1.365495 1.62447 -29.53507 13.51164 83.58455 20.36875 -8.921546 -0 0 29.00073 -21.01717 11.16929 11.29986 3.178501 -25.31358 -9.354349 -97.64324 6.302005 40.22404 0 0 -1.201642 8.225913 11.20407 3.216157
-1215.695 99.89896 2525.381 -9.798722 -2.906171 -68.53163 7.355491 11.92122 0.06724161 -0 11.02105 -0 -11.80864 -9.270953 -2.269721 4.968702 -17.26619 -2.186665 -0 20.94043 -0 4.920522 0.1306784 15.50644 -0.3834562 -2.68888 9.296214 0.860818 14.05263 -5.547141 -1.717838 19.72724 5.524443 5.011052 -14.97616 1.281114 1.748614 -29.29248 13.45518 83.50384 20.74255 -9.175804 -0 0 28.67757 -20.72558 10.81781 11.0076 3.275198 -25.43951 -9.382997 -97.55543 6.258128 40.05711 0 0 -1.41753 8.514933 11.11505 3.051302
-1220.384 98.92611 2528.339 -9.432821 -2.15527 -69.02769 7.135117 13.16191 0.7092229 -0 13.05071 -0 -10.7545 -11.45613 -2.380062 5.327267 -17.13775 -2.210719 -0 13.76206 -0 4.577665 0.8591549 15.33277 -0.4343491 -2.679891 9.349284 0.8627812 13.92795 -5.551885 -1.794865 19.78927 5.622269 5.156899 -14.81681 1.200685 1.880647 -29.03634 13.39321 83.42348 21.13073 -9.446376 -0 0 28.33548 -20.42701 10.47147 10.71058 3.382148 -25.57188 -9.4081 -97.4663 6.229729 39.86884 0 0 -1.662246 8.817575 11.02787 2.884438
-1225.338 98.10762 2531.566 -9.090227 -1.653852 -69.602 6.479832 14.28075 0.8090184 -0 15.72878 -0 -10.30077 -12.89142 -2.073239 4.860284 -16.51961 -2.86026 -0 9.637167 -0 3.91977 1.157964 15.32841 -0.4826237 -2.674698 9.402944 0.8614355 13.8044 -5.55504 -1.868205 19.85211 5.721532 5.305315 -14.65819 1.124835 2.020849 -28.76619 13.3254 83.34383 21.53388 -9.73366 -0 0 27.97413 -20.12159 10.13193 10.40892 3.500107 -25.71077 -9.42893 -97.37587 6.218157 39.65785 0 0 -1.937607 9.134052 10.94263 2.715706
